<svg width="35" height="35" viewBox="0 0 35 35" fill="none" xmlns="http://www.w3.org/2000/svg">
<g clip-path="url(#clip0_12587_82793)">
<path d="M23.1011 16.9137L18.5938 21.4222V9.84375C18.5938 9.24 18.1038 8.75 17.5 8.75C16.8962 8.75 16.4062 9.24 16.4062 9.84375V21.4222L11.8989 16.9148C11.4713 16.4872 10.7789 16.4872 10.3523 16.9148C9.92467 17.3425 9.92467 18.0348 10.3523 18.4614L16.5397 24.6487C16.8022 24.9112 17.1609 24.9921 17.5011 24.932C17.8402 24.9921 18.2001 24.9101 18.4626 24.6487L24.6499 18.4614C25.0776 18.0337 25.0776 17.3414 24.6499 16.9148C24.2211 16.4872 23.5287 16.4872 23.1011 16.9137ZM17.5 0C7.83565 0 0 7.83451 0 17.5C0 27.1655 7.83565 35 17.5 35C27.1643 35 35 27.1643 35 17.5C35 7.83565 27.1655 0 17.5 0ZM17.5 32.8125C9.0431 32.8125 2.1875 25.9569 2.1875 17.5C2.1875 9.0431 9.0431 2.1875 17.5 2.1875C25.9569 2.1875 32.8125 9.0431 32.8125 17.5C32.8125 25.9569 25.9569 32.8125 17.5 32.8125Z" fill="#155EEF"/>
</g>
<defs>
<clipPath id="clip0_12587_82793">
<rect width="35" height="35" fill="white"/>
</clipPath>
</defs>
</svg>
